<svg width="267" height="170" viewBox="0 0 267 170" fill="none" xmlns="http://www.w3.org/2000/svg">
<g clip-path="url(#clip0_1_37)">
<path d="M161.9 51.228C162.232 51.2408 162.561 51.1679 162.842 51.0191C163.123 50.8703 163.342 50.6529 163.471 50.3964C163.599 50.1398 163.63 49.8564 163.559 49.5847C163.488 49.3129 163.32 49.066 163.075 48.8772C163.034 48.7412 163.005 48.6436 162.964 48.5077C162.979 48.4781 162.994 48.4485 163.008 48.419C164.502 45.4415 169.562 45.462 171.042 48.444C172.356 51.0906 174.029 53.7417 174.441 56.5401C174.623 57.777 174.546 59.0309 174.215 60.2459C177.301 54.6159 178.904 48.4967 178.914 42.3032C178.915 40.749 178.812 39.196 178.605 37.6515C178.434 36.3853 178.197 35.1281 177.894 33.8799C176.24 27.1075 172.688 20.7598 167.531 15.3581C165.035 14.2192 163.016 12.4677 161.747 10.3397C161.287 9.57479 160.963 8.75823 160.782 7.91544C161.064 7.94632 161.844 4.36005 161.632 4.14002C162.024 3.64205 162.727 3.39452 163.155 2.9086C165.287 0.491944 168.223 0.913907 169.756 4.19795C173.031 5.58017 173.062 7.8725 171.053 10.0772C169.775 11.4798 169.599 13.3778 168.477 14.8794C168.593 15.003 168.713 15.1226 168.828 15.2462C170.938 17.5147 172.776 19.9506 174.318 22.5191C173.882 19.6704 174.525 16.2386 175.623 14.0263C176.872 11.5057 179.214 9.38288 181.276 7.20382C183.753 4.58645 188.833 5.72872 189.269 9.04666C189.273 9.07879 189.278 9.1109 189.282 9.143C188.975 9.28751 188.675 9.4409 188.382 9.60317C188.014 9.8091 187.728 10.1033 187.563 10.4473C187.398 10.7913 187.361 11.169 187.456 11.5309C187.552 11.8928 187.777 12.222 188.1 12.4755C188.424 12.7289 188.831 12.8947 189.269 12.9512L189.314 12.957C189.205 13.8802 189.012 14.7952 188.737 15.694C191.383 24.2502 185.671 27.3666 177.515 27.5066C177.335 27.5838 177.16 27.661 176.98 27.7343C178.529 31.4044 179.5 35.2273 179.87 39.1068C180.079 41.3956 180.067 43.6949 179.833 45.982L179.847 45.901C180.437 43.3577 182.06 41.0629 184.439 39.4041C187.974 36.9759 192.968 36.0818 196.781 34.13C198.616 33.1905 200.968 34.4046 200.648 36.1843C200.643 36.2127 200.638 36.2411 200.632 36.2695C200.064 36.4631 199.51 36.6861 198.975 36.9373C198.669 37.0819 198.369 37.2352 198.076 37.3975C197.707 37.6034 197.422 37.8976 197.256 38.2416C197.091 38.5856 197.054 38.9633 197.15 39.3252C197.246 39.6871 197.47 40.0163 197.794 40.2698C198.117 40.5232 198.525 40.6891 198.963 40.7455L199.008 40.7513C199.04 40.7552 199.068 40.759 199.1 40.7629C198.129 42.7023 196.765 44.4874 195.07 46.04C193.416 53.5092 186.311 54.2179 178.711 52.0428H178.706C177.873 55.0731 176.664 58.0228 175.101 60.8443H162.223C162.176 60.7246 162.135 60.6011 162.093 60.4814C163.285 60.5441 164.482 60.4845 165.657 60.3039C164.701 59.3233 163.746 58.3351 162.79 57.3546C162.769 57.3362 162.749 57.3169 162.73 57.2966C162.246 56.7948 161.756 56.2968 161.272 55.795L161.272 55.7944C161.246 54.2561 161.457 52.7214 161.9 51.2282L161.9 51.228Z" fill="#F2F2F2"/>
<path d="M203.249 23.6645C200.854 16.3632 220.168 10.1021 225.24 15.9819C225.945 15.146 228.552 14.6382 229.748 14.8947C230.943 15.1511 231.949 15.7922 232.93 16.4127C234.28 17.2795 235.678 18.177 236.506 19.4232C237.34 20.6643 237.468 22.3567 236.346 23.4337C235.457 24.2902 232.832 24.8441 231.495 25.0697C230.563 25.2287 229.778 25.3569 229.104 25.4492C228.491 24.711 228.209 23.8158 228.306 22.9209C227.852 23.177 227.472 23.514 227.192 23.9077C226.912 24.3014 226.74 24.742 226.687 25.198C226.669 25.3877 234.224 48.6354 234.224 48.6354C233.317 49.0675 232.362 49.4264 231.373 49.7073C229.416 47.2066 227.918 44.4754 226.927 41.6042C226.699 43.5241 226.728 45.4592 227.013 47.3738C227.164 48.4474 227.381 49.5138 227.663 50.5689C218.685 52.1895 205.181 51.6562 199.306 44.7634C199.305 44.7349 199.304 44.7063 199.303 44.6778C199.298 44.4057 199.181 44.1434 198.97 43.9359C198.76 43.7283 198.47 43.5884 198.15 43.54C197.83 43.4917 197.499 43.538 197.215 43.6709C196.932 43.8039 196.712 44.0152 196.594 44.2688C196.451 44.5729 196.32 44.8361 196.203 45.0455C194.492 39.9271 196.706 34.0037 203.249 23.6645Z" fill="#2F2E41"/>
<path d="M187.972 146.074V146.313C187.96 146.233 187.96 146.153 187.972 146.074Z" fill="#2F2E41"/>
<path d="M196.764 104.753C196.992 104.701 197.224 104.664 197.459 104.64C197.19 104.677 196.958 104.715 196.764 104.753Z" fill="#2F2E41"/>
<path d="M196.56 104.796C196.622 104.782 196.69 104.767 196.764 104.753C196.696 104.768 196.63 104.778 196.56 104.796Z" fill="#2F2E41"/>
<path d="M261.517 169.999H228.608C228.139 169.686 227.812 169.247 227.684 168.756C227.556 168.265 227.633 167.752 227.904 167.304C228.803 165.58 227.041 164.004 227.041 164.004C226.443 163.418 226.027 162.718 225.83 161.965C225.634 161.212 225.662 160.431 225.913 159.69C226.785 157.143 223.368 149.955 223.368 149.955C223.368 149.955 221.526 159.237 219.269 169.999H187.971C187.447 169.252 187.171 168.402 187.171 167.536C187.171 166.67 187.447 165.819 187.971 165.072C189.795 162.486 187.971 161.99 187.971 161.99C187.971 161.99 186.148 159.096 187.971 156.995C189.795 154.893 187.971 146.313 187.971 146.313C188.04 146.692 188.56 146.002 189.36 144.556C190.578 142.356 192.439 138.399 194.319 133.805C195.664 130.527 197.019 126.919 198.152 123.392H198.155C198.452 122.466 198.733 121.548 198.999 120.638C199.518 118.854 199.964 117.12 200.302 115.492C201.036 111.986 201.278 108.974 200.714 107.015C200.247 105.385 199.224 104.486 197.459 104.64C198.405 104.509 199.791 104.385 201.498 104.268C201.806 104.247 202.125 104.226 202.455 104.203C215.189 103.399 242.511 102.936 242.511 102.936L250.88 115.469L261.478 131.345C261.478 131.345 261.19 152.642 261.517 169.999Z" fill="#2F2E41"/>
<path d="M226.391 48.7672L207.111 45.3469L203.282 51.7912L190.391 58.033C190.391 58.033 198.701 86.4482 198.653 90.4447C198.533 100.591 179.12 123.336 193.783 121.586C208.446 119.837 211.425 112.507 216.132 113.666C220.377 114.711 225.561 119.361 229.031 116.036C232.502 112.71 233.724 116.55 235.918 116.683C236.961 116.746 236.333 112.484 238.957 116.815C241.581 121.147 255.495 115.316 250.779 111.372C242.925 104.804 241.329 56.3862 241.329 56.3862L232.586 54.1364L226.391 48.7672Z" fill="#E6E6E6"/>
<path d="M190.026 151.959C190.801 151.187 191.184 150.192 191.095 149.186C191.006 148.181 190.452 147.244 189.549 146.575C189.363 146.442 189.165 146.321 188.955 146.215L192.179 132.984L184.726 129.254L182.653 147.778C182.195 148.54 182.05 149.407 182.243 150.244C182.435 151.081 182.953 151.841 183.717 152.406C184.155 152.724 184.664 152.966 185.214 153.12C185.764 153.273 186.345 153.335 186.924 153.301C187.502 153.266 188.067 153.137 188.586 152.92C189.105 152.703 189.568 152.403 189.948 152.037C189.974 152.011 190 151.985 190.026 151.959Z" fill="#A0616A"/>
<path d="M213.166 82.2162C213.119 81.7908 212.47 81.5977 211.571 81.331C210.668 81.0984 209.81 80.7585 209.023 80.3217C207.032 79.1192 207.816 77.8615 208.899 76.1234C209.11 75.7854 209.33 75.4336 209.537 75.068C210.15 73.9851 209.174 69.5178 206.631 61.7879C205.847 59.4083 205.85 57.7276 205.308 56.6125C204.769 55.4974 203.689 54.9479 200.744 54.8329C197.185 54.6827 193.7 55.7187 191.053 57.7138C190.982 57.7667 190.908 57.8242 190.836 57.8793C190.701 57.9851 190.57 58.0932 190.44 58.2035C187.992 60.2631 186.591 63.0345 186.531 65.938L186.517 66.4323L185.91 90.0495L184.202 110.774L181.849 139.323L183.592 139.395L190.548 139.684L191.392 139.719L193.393 132.697L195.801 124.248L196.687 121.144L199.433 111.515L200.714 107.015L201.498 104.268L201.817 103.146L203.373 97.692C203.409 97.577 206.988 85.7661 211.115 83.7911C212.654 83.0554 213.21 82.6277 213.166 82.2162Z" fill="#E6E6E6"/>
<path d="M259.466 151.819C258.597 151.12 258.088 150.165 258.047 149.158C258.006 148.15 258.438 147.169 259.249 146.423C259.416 146.274 259.599 146.136 259.794 146.012L254.889 133.147L261.82 128.769L266.26 147C266.813 147.715 267.068 148.564 266.984 149.414C266.901 150.263 266.483 151.066 265.796 151.696C265.402 152.051 264.927 152.338 264.4 152.54C263.872 152.742 263.302 152.856 262.723 152.873C262.143 152.891 261.565 152.814 261.021 152.645C260.478 152.476 259.979 152.219 259.554 151.889C259.524 151.866 259.495 151.842 259.466 151.819Z" fill="#A0616A"/>
<path d="M262.857 123.902C262.857 123.902 257.451 107.998 259.1 106.277C260.748 104.555 255.88 104.219 257.978 101.012C260.076 97.8056 257.18 97.2693 257.18 97.2693L255.609 89.8968L252.799 71.7881L252.714 71.2495L251.897 65.9811C251.669 64.4763 251.08 63.0255 250.166 61.7154C249.252 60.4052 248.032 59.2626 246.578 58.356C246.503 58.3084 246.427 58.2628 246.352 58.2171C246.006 58.0089 245.652 57.816 245.292 57.6384C242.595 56.308 239.428 55.805 236.336 56.2158C230.51 56.9747 232.324 58.7916 231.379 63.6593C229.843 71.5739 229.445 76.1019 230.193 77.125C230.446 77.4695 230.711 77.7991 230.963 78.1155C232.264 79.7486 233.205 80.9268 231.379 82.3037C230.652 82.8069 229.842 83.2211 228.975 83.5337C228.117 83.8812 227.496 84.1305 227.504 84.5576C227.514 84.9714 228.121 85.345 229.745 85.9376C231.713 86.6579 233.827 89.381 235.558 92.1629C236.932 94.4052 238.157 96.709 239.228 99.0639L254.109 134.064L256.536 139.772L257.373 139.662L264.249 138.75L265.973 138.522L262.857 123.902Z" fill="#E6E6E6"/>
<path d="M218.257 45.1052C226.944 45.1052 233.987 39.2155 233.987 31.9502C233.987 24.6849 226.944 18.7952 218.257 18.7952C209.569 18.7952 202.527 24.6849 202.527 31.9502C202.527 39.2155 209.569 45.1052 218.257 45.1052Z" fill="#A0616A"/>
<path d="M194.664 24.6902C192.269 17.3889 211.583 11.1279 216.655 17.0076C217.36 16.1717 219.966 15.664 221.162 15.9204C222.358 16.1768 223.364 16.8179 224.345 17.4384C225.694 18.3052 227.092 19.2027 227.92 20.4489C228.754 21.69 228.883 23.3825 227.761 24.4594C226.871 25.3159 224.247 25.8698 222.91 26.0954C221.978 26.2544 221.193 26.3826 220.518 26.475C219.905 25.7367 219.623 24.8415 219.721 23.9466C219.267 24.2027 218.886 24.5397 218.606 24.9334C218.327 25.3271 218.154 25.7677 218.102 26.2237C218.084 26.4134 225.639 49.6612 225.639 49.6612C224.731 50.0932 223.776 50.4521 222.787 50.733C220.831 48.2323 219.332 45.5011 218.341 42.6299C218.113 44.5498 218.142 46.485 218.427 48.3995C218.579 49.4731 218.796 50.5395 219.077 51.5946C210.099 53.2152 196.595 52.6819 190.72 45.7891C190.719 45.7606 190.718 45.7321 190.718 45.7035C190.713 45.4314 190.595 45.1691 190.385 44.9616C190.175 44.754 189.885 44.6141 189.564 44.5658C189.244 44.5174 188.914 44.5637 188.63 44.6966C188.346 44.8296 188.126 45.0409 188.008 45.2945C187.866 45.5986 187.735 45.8618 187.617 46.0712C185.907 40.9529 188.12 35.0294 194.664 24.6902Z" fill="#2F2E41"/>
<path d="M116.652 70.1464C116.32 70.1592 115.991 70.0862 115.71 69.9375C115.429 69.7887 115.209 69.5713 115.081 69.3147C114.953 69.0582 114.922 68.7748 114.993 68.5031C115.063 68.2313 115.232 67.9843 115.476 67.7955C115.517 67.6596 115.547 67.562 115.588 67.4261C115.573 67.3965 115.558 67.3669 115.543 67.3374C114.05 64.3599 108.99 64.3804 107.509 67.3623C106.196 70.0089 104.523 72.6601 104.111 75.4584C103.929 76.6954 104.006 77.9493 104.337 79.1643C101.251 73.5342 99.6481 67.415 99.6377 61.2216C99.6371 59.6674 99.7403 58.1144 99.947 56.5699C100.118 55.3037 100.355 54.0465 100.658 52.7983C102.312 46.0259 105.864 39.6782 111.021 34.2765C113.517 33.1376 115.535 31.3861 116.805 29.2581C117.264 28.4932 117.589 27.6766 117.769 26.8338C117.488 26.8647 116.708 23.2784 116.92 23.0584C116.528 22.5604 115.825 22.3129 115.397 21.827C113.265 19.4103 110.329 19.8323 108.796 23.1163C105.521 24.4986 105.489 26.7909 107.499 28.9956C108.777 30.3982 108.953 32.2962 110.075 33.7978C109.959 33.9214 109.839 34.041 109.724 34.1646C107.614 36.4331 105.776 38.869 104.234 41.4375C104.67 38.5888 104.027 35.1569 102.929 32.9447C101.68 30.4241 99.3378 28.3013 97.2755 26.1222C94.7985 23.5048 89.719 24.6471 89.2826 27.9651C89.2784 27.9972 89.2743 28.0293 89.2702 28.0614C89.5766 28.2059 89.8764 28.3593 90.1698 28.5216C90.5383 28.7275 90.8239 29.0217 90.9891 29.3657C91.1542 29.7097 91.1913 30.0874 91.0954 30.4493C90.9996 30.8112 90.7752 31.1404 90.4518 31.3939C90.1283 31.6473 89.7209 31.8131 89.2828 31.8696L89.2379 31.8754C89.3471 32.7986 89.5399 33.7136 89.8149 34.6124C87.1694 43.1686 92.881 46.285 101.036 46.425C101.216 46.5022 101.392 46.5794 101.572 46.6527C100.023 50.3228 99.052 54.1457 98.6823 58.0252C98.4729 60.314 98.4853 62.6133 98.7192 64.9004L98.7053 64.8194C98.1144 62.2761 96.4921 59.9813 94.1124 58.3225C90.5779 55.8943 85.5843 55.0002 81.7712 53.0484C79.9357 52.1089 77.5836 53.323 77.9039 55.1027C77.9091 55.1311 77.9142 55.1595 77.9195 55.1879C78.488 55.3815 79.0414 55.6045 79.5767 55.8557C79.883 56.0002 80.1828 56.1536 80.4762 56.3159C80.8447 56.5218 81.1303 56.816 81.2955 57.16C81.4607 57.504 81.4977 57.8817 81.4019 58.2436C81.306 58.6055 81.0816 58.9347 80.7582 59.1882C80.4347 59.4416 80.0273 59.6075 79.5892 59.6639L79.5443 59.6697C79.512 59.6736 79.4843 59.6774 79.452 59.6813C80.4233 61.6207 81.7864 63.4057 83.4818 64.9584C85.136 72.4276 92.2408 73.1363 99.8409 70.9612H99.8455C100.679 73.9915 101.888 76.9412 103.451 79.7627H116.329C116.375 79.643 116.417 79.5195 116.458 79.3998C115.266 79.4625 114.07 79.4028 112.895 79.2223C113.85 78.2417 114.806 77.2535 115.761 76.2729C115.783 76.2546 115.803 76.2353 115.821 76.215C116.306 75.7132 116.795 75.2152 117.28 74.7134L117.28 74.7128C117.306 73.1745 117.095 71.6398 116.652 70.1466L116.652 70.1464Z" fill="#F2F2F2"/>
<path d="M56.5594 15.9822C56.2671 16.5518 47.2545 16.4908 46.8417 16.998C43.6592 20.9142 55.1316 37.5763 51.9491 41.4975L51.5057 41.9394C52.544 41.5393 53.5414 41.0687 54.4878 40.5325C54.5729 38.9274 54.6579 37.3173 54.749 35.7123C55.7023 36.7321 56.4716 37.8632 57.0327 39.0696C57.7737 38.6328 58.3815 37.8231 61.5575 36.2303C62.8432 35.0491 64.3255 34.0287 65.9587 33.2005L56.5594 15.9822Z" fill="#2F2E41"/>
<path d="M63.1038 48.0771C62.1092 47.5352 60.9745 47.1996 59.7937 47.0979C58.613 46.9963 57.4203 47.1316 56.3146 47.4926C55.2089 47.8537 54.2221 48.43 53.4361 49.1738C52.6501 49.9177 52.0875 50.8075 51.7951 51.7696L38.0991 81.6136L14.5573 70.4363C14.454 69.1516 13.8667 67.9272 12.8798 66.9388C11.893 65.9504 10.5571 65.2488 9.06397 64.9346C7.5708 64.6203 5.99698 64.7096 4.56825 65.1897C3.13952 65.6697 1.92928 66.5158 1.1111 67.6066C0.292919 68.6974 -0.0911642 69.9769 0.0139379 71.2616C0.11904 72.5462 0.707929 73.7701 1.69614 74.7575C2.68435 75.745 4.02112 76.4453 5.51471 76.7582C7.00831 77.071 8.582 76.9802 10.0101 76.4988C14.9678 80.9239 36.4612 99.0667 45.3594 91.9779C52.8387 86.0194 63.6322 62.9264 66.2304 54.9519C66.6466 53.6767 66.5681 52.324 66.0062 51.0885C65.4444 49.8531 64.4281 48.7986 63.1038 48.0771Z" fill="#FFB6B6"/>
<path d="M37.3867 93.2285L41.7087 109.565L73.3128 111.956L76.2173 97.731L37.3867 93.2285Z" fill="#FFB6B6"/>
<path d="M85.6625 135.123C85.6481 135.357 85.6308 135.589 85.6106 135.823C85.3074 139.208 84.961 143.112 84.5857 147.39C83.9938 154.18 83.3327 161.911 82.6658 169.999H16.3759L29.2321 137.683C29.2321 137.683 34.4232 135.293 31.7803 131.277C29.1375 127.262 34.3376 130.462 34.386 124.728C34.4344 118.993 39.0942 112.893 39.0942 112.893L39.8593 104.211L40.2952 104.218L74.7928 104.698L75.4221 104.708L76.4817 112.161C82.915 118.563 86.1971 126.772 85.6625 135.123Z" fill="#2F2E41"/>
<path d="M57.1119 40.1597L72.8428 39.482L80.1494 49.1372C80.1494 49.1372 93.8969 51.0593 92.9439 64.6071C91.991 78.1548 76.2173 90.043 76.2173 90.043L76.8916 88.1097L75.7205 90.9081L75.8707 92.4793L77.4683 94.1433L77.6327 95.8642L76.2173 98.587C76.4014 98.8338 76.4991 99.1187 76.4993 99.4095C76.4995 99.7003 76.4023 99.9853 76.2186 100.232C76.0349 100.479 75.7722 100.678 75.4602 100.806C75.1482 100.935 74.7994 100.988 74.4534 100.959L51.7235 99.0536C51.206 97.863 50.7908 96.4386 48.7164 98.8099L46.5752 98.6364L37.6742 97.9152L37.1503 96.3192C36.8527 95.4123 36.8063 94.4605 37.0147 93.5364C37.2231 92.6123 37.6809 91.74 38.3532 90.9861C37.58 88.9615 37.7825 86.7644 38.9175 84.8628L38.9601 84.7914L39.9053 84.1325C39.9053 84.1325 29.5641 71.1397 41.4355 61.3537L46.2002 54.5798L51.5314 49.1403L57.1119 40.1597Z" fill="#A4F4F9"/>
<path d="M61.027 34.4602C69.2656 34.4602 75.9443 28.8748 75.9443 21.985C75.9443 15.0952 69.2656 9.50983 61.027 9.50983C52.7885 9.50983 46.1098 15.0952 46.1098 21.985C46.1098 28.8748 52.7885 34.4602 61.027 34.4602Z" fill="#FFB6B6"/>
<path d="M72.3568 39.9564C71.142 39.1075 70.2965 37.9469 69.9516 36.6549C69.6757 38.2236 69.7478 39.8215 70.1642 41.3684C69.3564 41.8763 68.5729 42.3589 67.8319 42.7957C67.2709 41.5893 66.5015 40.4581 65.5483 39.4383C65.4572 41.0433 65.3722 42.6535 65.2871 44.2585C64.3406 44.7948 63.3433 45.2653 62.305 45.6655L62.7484 45.2236C65.9309 41.3024 57.6952 34.0847 60.8777 30.1686C61.7705 29.0715 57.7377 20.4012 54.6645 20.0101C51.9314 19.6647 52.0468 20.325 49.3987 20.8075C49.1237 19.8484 48.6968 18.9243 48.1293 18.0596C48.2804 19.0231 48.2455 20.0006 48.0261 20.9548C47.0847 20.9853 46.344 20.4836 45.3416 20.3554C38.9461 19.5377 39.596 13.7524 41.3755 11.9188C43.1611 10.0903 49.0889 9.54168 51.8221 8.94739C52.0711 8.74423 52.6359 8.87121 52.8849 8.6782C58.1228 4.66937 65.128 4.00547 71.4321 5.78228C78.1549 7.6771 82.3465 11.3444 84.4978 16.9981L85.1148 21.5224C85.6683 22.9771 84.972 29.7458 84.4978 31.22C82.6544 36.9505 78.7287 34.0898 72.3568 39.9564Z" fill="#2F2E41"/>
<path d="M94.1074 99.0605L93.5201 60.81C93.4895 59.1895 92.6983 57.644 91.3172 56.5071C89.9361 55.3702 88.0758 54.733 86.1379 54.733C85.1353 54.733 84.1433 54.9038 83.2222 55.2349C82.3011 55.566 81.4704 56.0505 80.7805 56.6588C80.0906 57.2672 79.5562 57.9867 79.2097 58.7734C78.8632 59.5602 78.7119 60.3977 78.765 61.235L80.8316 100.952L80.8708 125.13C79.6528 125.562 78.6234 126.297 77.9223 127.236C77.2213 128.174 76.8826 129.27 76.9523 130.375C77.022 131.48 77.4968 132.54 78.312 133.411C79.1273 134.282 80.2436 134.923 81.5092 135.245C82.7748 135.567 84.1283 135.556 85.386 135.213C86.6436 134.869 87.7444 134.211 88.5387 133.326C89.333 132.441 89.7823 131.373 89.8257 130.267C89.869 129.161 89.5043 128.071 88.781 127.145L94.1074 99.0605Z" fill="#FFB6B6"/>
<path d="M171.097 148.548C171.097 148.548 170.189 162.209 169.771 170H138.502C137.859 162.91 137.642 157.7 137.642 157.7L135.931 170H104.324L102.365 147.221L111.834 127.591C111.834 127.591 163.15 124.615 167.911 128.39C172.667 132.163 171.097 148.548 171.097 148.548Z" fill="#2F2E41"/>
<path d="M143.446 33.6283C152.879 33.6283 160.526 27.2332 160.526 19.3444C160.526 11.4556 152.879 5.0605 143.446 5.0605C134.013 5.0605 126.366 11.4556 126.366 19.3444C126.366 27.2332 134.013 33.6283 143.446 33.6283Z" fill="#FFB6B6"/>
<path d="M163.354 14.703C161.6 15.372 160.463 20.2172 159.084 19.0908C157.706 17.9644 157.798 16.4985 155.938 16.0828C154.437 15.7457 152.822 16.131 151.452 16.7387C151.208 16.8459 150.971 16.9625 150.74 17.0784C150.587 16.9932 150.435 16.913 150.272 16.839C149.048 16.2909 147.618 16.1564 146.278 16.4633C147.337 16.7599 148.257 17.3273 148.909 18.0853C148.451 18.3421 147.987 18.5996 147.512 18.8278C143.545 20.7422 137.901 16.5794 133.725 15.0155C136.341 19.12 135.053 20.8199 132.782 25.0648L132.703 25.3065C132.832 24.2426 128.896 23.4497 129.124 24.9474C129.286 26.0107 130.387 28.3742 131.003 29.3131C126.613 25.0679 123.613 19.8731 124.246 14.5142C124.384 13.3885 124.342 12.2007 125.036 11.2236C125.731 10.2516 127.18 9.56943 128.462 9.94011C128.354 8.23109 128.801 6.5294 129.756 5.01595C130.712 3.5025 132.14 2.23386 133.889 1.3449C135.637 0.455943 137.641 -0.0201029 139.688 -0.032629C141.734 -0.045155 143.746 0.406309 145.511 1.27376C147.15 2.07816 148.518 3.21583 150.021 4.19716C151.523 5.17848 153.255 6.03387 155.16 6.11488C156.369 6.16363 157.684 5.91687 158.722 6.44035C159.925 7.04776 160.131 8.31949 160.311 9.54321C159.238 9.63165 158.222 9.98557 157.39 10.5597C158.5 10.465 159.618 10.6655 160.584 11.1325C160.602 11.1395 160.62 11.1478 160.636 11.1574C161.272 13.1798 161.207 13.6281 163.354 14.703Z" fill="#2F2E41"/>
<path d="M104.4 134.501C118.945 120.263 114.032 102.154 108.26 83.8727L109.358 56.8664C109.412 55.5417 109.846 54.2472 110.624 53.0923C111.402 51.9375 112.501 50.9561 113.828 50.2312L128.676 42.1186L134.456 35.1306L150.387 36.4629L159.221 44.2759L168.999 50.5189C171.454 52.0864 173.323 54.2083 174.383 56.6345C175.444 59.0606 175.654 61.6898 174.987 64.2121L165.629 99.603C165.629 99.603 169.543 117.95 167.155 119.976C164.767 122.002 158.613 119.977 163.493 122.252C169.349 124.981 174.674 124.478 171.71 126.956C168.747 129.434 172.497 132.88 172.497 132.88L104.4 134.501Z" fill="#A4F4F9"/>
<path d="M110.619 155.194L113.044 140.747L103.368 138.437L101.454 153.788C100.654 154.402 100.074 155.191 99.7795 156.065C99.4853 156.94 99.4887 157.866 99.7892 158.739C100.09 159.612 100.676 160.397 101.481 161.007C102.286 161.617 103.279 162.027 104.347 162.191C105.416 162.355 106.518 162.267 107.529 161.935C108.541 161.604 109.422 161.044 110.074 160.317C110.725 159.59 111.122 158.725 111.218 157.82C111.314 156.915 111.107 156.006 110.619 155.194Z" fill="#FFB6B6"/>
<path d="M129.039 44.723C129.039 44.723 101.499 52.2192 100.842 57.704C100.185 63.1889 100.403 66.5466 97.4964 88.4946L97.6496 147.617C97.6496 147.617 116.114 150.923 114.22 147.388C112.327 143.853 112.987 142.19 112.987 142.19C112.987 142.19 116.946 140.884 115.955 136.733C114.964 132.583 119.934 112.015 119.934 112.015L123.07 75.1268L129.039 44.723Z" fill="#A4F4F9"/>
<path d="M162.998 154.429L161.707 139.88L171.543 138.104L172.252 153.527C173.003 154.183 173.521 155.002 173.746 155.891C173.971 156.779 173.895 157.703 173.527 158.558C173.159 159.413 172.513 160.165 171.662 160.729C170.811 161.294 169.788 161.649 168.709 161.754C167.63 161.859 166.537 161.711 165.554 161.325C164.57 160.939 163.735 160.332 163.141 159.571C162.548 158.81 162.22 157.925 162.195 157.017C162.169 156.109 162.447 155.212 162.998 154.429Z" fill="#FFB6B6"/>
<path d="M153.251 43.1872C153.251 43.1872 180.147 52.1728 180.373 57.6819C180.6 63.1909 180.12 66.5294 181.305 88.5894L176.531 147.577C176.531 147.577 157.848 149.866 160.014 146.443C162.18 143.019 161.651 141.323 161.651 141.323C161.651 141.323 157.802 139.803 159.116 135.716C160.429 131.628 157.078 110.833 157.078 110.833L156.831 73.8523L153.251 43.1872Z" fill="#A4F4F9"/>
</g>
<defs>
<clipPath id="clip0_1_37">
<rect width="267" height="170" fill="white"/>
</clipPath>
</defs>
</svg>
